# xmcd
#
# Track frame offsets: 
#        150
#        21475
#        47161
#        65987
#        85886
#        106808
#        126866
#        153116
#        162860
#        188383
#        205930
#        220712
#
# Disc length: 3492 seconds
#
# Revision: 2
# Processed by: cddbd v1.5.2PL0 Copyright (c) Steve Scherf et al.
# Submitted via: ExactAudioCopy v0.99pb4
#
DISCID=9f0da20c
DTITLE=Grateful Dead - Bits and Pieces about...
DYEAR=2006
DGENRE=Rock
TTITLE0=Uncle John's Band
TTITLE1=Me and Bobby McGee
TTITLE2=Good lovin'
TTITLE3=Casey Jones
TTITLE4=Playing in the Band
TTITLE5=El Paso
TTITLE6=Turn on your love light
TTITLE7=The golden road
TTITLE8=Bertha
TTITLE9=I know you rider
TTITLE10=Sugar Magnolia
TTITLE11=Medley: a) Not fade away b) Goin' down the road feeling bad
EXTD=
EXTT0=
EXTT1=
EXTT2=
EXTT3=
EXTT4=
EXTT5=
EXTT6=
EXTT7=
EXTT8=
EXTT9=
EXTT10=
EXTT11=
PLAYORDER=
